<svg width="115" height="28" viewBox="0 0 115 28" fill="none" xmlns="http://www.w3.org/2000/svg">
<g clip-path="url(#clip0_81_3916)">
<path d="M22.17 7.51012C22.17 4.80012 19.95 2.58012 17.24 2.58012H1.72L2.46 0.120117H17.24C21.33 0.120117 24.63 3.42012 24.63 7.51012V24.7501H7.39C3.3 24.7501 0 21.7001 0 17.6101C0 13.5201 3.3 10.4701 7.39 10.4701H22.17V7.51012ZM22.17 22.2901V12.9301H7.39C4.68 12.9301 2.46 14.9001 2.46 17.6101C2.46 20.3201 4.68 22.2901 7.39 22.2901H22.17Z" fill="#D0BCFF"/>
<path d="M46.3001 0.120117C50.3901 0.120117 53.6901 3.42012 53.6901 7.51012V13.6701H31.5301V17.3601C31.5301 20.0701 33.7501 22.2901 36.4601 22.2901H51.9801L51.2401 24.7501H36.4601C32.3701 24.7501 29.0701 21.4501 29.0701 17.3601V7.51012C29.0601 3.42012 32.3601 0.120117 36.4401 0.120117H46.2901H46.3001ZM36.4401 2.58012C33.7301 2.58012 31.5101 4.80012 31.5101 7.51012V11.2001H51.2101V7.51012C51.2101 4.80012 48.9901 2.58012 46.2801 2.58012H36.4301H36.4401Z" fill="#D0BCFF"/>
<path d="M97.0199 2.58012C94.3099 2.58012 92.0899 4.80012 92.0899 7.51012V24.7501H89.6299V7.51012C89.6299 3.42012 92.9299 0.120117 97.0199 0.120117H106.87C110.96 0.120117 114.26 3.42012 114.26 7.51012V24.7501H111.8V7.51012C111.8 4.80012 109.58 2.58012 106.87 2.58012H97.0199Z" fill="#D0BCFF"/>
<path d="M69.1201 22.0902V16.0002C69.1201 13.4702 71.1601 11.4302 73.6901 11.4302H79.7801C80.6701 11.4302 81.5001 11.6902 82.2001 12.1302V7.38023C82.2001 3.29023 78.9001 -0.00976562 74.8101 -0.00976562H64.9601C60.8701 -0.00976562 57.5701 3.29023 57.5701 7.38023V17.2302C57.5701 21.3202 60.8701 24.6202 64.9601 24.6202H69.9001C69.4101 23.8902 69.1301 23.0202 69.1301 22.0802L69.1201 22.0902Z" fill="#D0BCFF"/>
<path d="M73.6901 26.6504C71.1601 26.6504 69.1201 24.6104 69.1201 22.0804V15.9904C69.1201 13.4604 71.1601 11.4204 73.6901 11.4204H79.7801C82.3101 11.4204 84.3501 13.4604 84.3501 15.9904V22.0804C84.3501 24.6104 82.3101 26.6504 79.7801 26.6504H73.6901Z" stroke="#D0BCFF" stroke-width="1.5"/>
</g>
<defs>
<clipPath id="clip0_81_3916">
<rect width="114.26" height="27.4" fill="white"/>
</clipPath>
</defs>
</svg>

