<svg id="logo" width="115" height="28" viewBox="0 0 115 28" fill="none" xmlns="http://www.w3.org/2000/svg" class="text-l-primary dark:text-d-primary">
<g clip-path="url(#clip0_81_3918)">
<path d="M22.17 7.91002C22.17 5.20002 19.95 2.98002 17.24 2.98002H1.72L2.46 0.52002H17.24C21.33 0.52002 24.63 3.82002 24.63 7.91002V25.15H7.39C3.3 25.15 0 22.1 0 18.01C0 13.92 3.3 10.87 7.39 10.87H22.17V7.91002ZM22.17 22.69V13.33H7.39C4.68 13.33 2.46 15.3 2.46 18.01C2.46 20.72 4.68 22.69 7.39 22.69H22.17Z" fill="currentColor"/>
<path d="M46.3001 0.52002C50.3901 0.52002 53.6901 3.82002 53.6901 7.91002V14.07H31.5301V17.76C31.5301 20.47 33.7501 22.69 36.4601 22.69H51.9801L51.2401 25.15H36.4601C32.3701 25.15 29.0701 21.85 29.0701 17.76V7.91002C29.0601 3.82002 32.3601 0.52002 36.4401 0.52002H46.2901H46.3001ZM36.4401 2.98002C33.7301 2.98002 31.5101 5.20002 31.5101 7.91002V11.6H51.2101V7.91002C51.2101 5.20002 48.9901 2.98002 46.2801 2.98002H36.4301H36.4401Z" fill="currentColor"/>
<path d="M97.0199 2.98002C94.3099 2.98002 92.0899 5.20002 92.0899 7.91002V25.15H89.6299V7.91002C89.6299 3.82002 92.9299 0.52002 97.0199 0.52002H106.87C110.96 0.52002 114.26 3.82002 114.26 7.91002V25.15H111.8V7.91002C111.8 5.20002 109.58 2.98002 106.87 2.98002H97.0199Z" fill="currentColor"/>
<path d="M69.1201 22.4901V16.4001C69.1201 13.8701 71.1601 11.8301 73.6901 11.8301H79.7801C80.6701 11.8301 81.5001 12.0901 82.2001 12.5301V7.78014C82.2001 3.69014 78.9001 0.390137 74.8101 0.390137H64.9601C60.8701 0.390137 57.5701 3.69014 57.5701 7.78014V17.6301C57.5701 21.7201 60.8701 25.0201 64.9601 25.0201H69.9001C69.4101 24.2901 69.1301 23.4201 69.1301 22.4801L69.1201 22.4901Z" fill="currentColor"/>
<path d="M73.6901 27.0503C71.1601 27.0503 69.1201 25.0103 69.1201 22.4803V16.3903C69.1201 13.8603 71.1601 11.8203 73.6901 11.8203H79.7801C82.3101 11.8203 84.3501 13.8603 84.3501 16.3903V22.4803C84.3501 25.0103 82.3101 27.0503 79.7801 27.0503H73.6901Z" stroke="currentColor" stroke-width="1.5"/>
</g>
<defs>
<clipPath id="clip0_81_3918">
<rect width="114.26" height="27.4" fill="white" transform="translate(0 0.399902)"/>
</clipPath>
</defs>
</svg>

